<mxfile host="app.diagrams.net" modified="2024-02-28T08:20:53.421Z" agent="Mozilla/5.0 (Windows NT 10.0; Win64; x64) AppleWebKit/537.36 (KHTML, like Gecko) Chrome/120.0.0.0 YaBrowser/24.1.0.0 Safari/537.36" etag="8gNhqWLcey2RGdmxz8tt" version="23.1.7" type="google">
  <diagram name="Страница — 1" id="t2vCrNQ9wf_eOK1ATSUl">
    <mxGraphModel grid="1" page="1" gridSize="10" guides="1" tooltips="1" connect="1" arrows="1" fold="1" pageScale="1" pageWidth="827" pageHeight="1169" math="0" shadow="0">
      <root>
        <mxCell id="0" />
        <mxCell id="1" parent="0" />
        <mxCell id="0IOq34aNbkgQqZw7lwuk-13" style="edgeStyle=orthogonalEdgeStyle;rounded=0;orthogonalLoop=1;jettySize=auto;html=1;entryX=0.5;entryY=0;entryDx=0;entryDy=0;" edge="1" parent="1" source="0IOq34aNbkgQqZw7lwuk-1" target="0IOq34aNbkgQqZw7lwuk-2">
          <mxGeometry relative="1" as="geometry" />
        </mxCell>
        <mxCell id="0IOq34aNbkgQqZw7lwuk-14" style="edgeStyle=orthogonalEdgeStyle;rounded=0;orthogonalLoop=1;jettySize=auto;html=1;" edge="1" parent="1" source="0IOq34aNbkgQqZw7lwuk-1" target="0IOq34aNbkgQqZw7lwuk-3">
          <mxGeometry relative="1" as="geometry" />
        </mxCell>
        <mxCell id="0IOq34aNbkgQqZw7lwuk-1" value="Animals" style="rounded=0;whiteSpace=wrap;html=1;" vertex="1" parent="1">
          <mxGeometry x="354" y="60" width="120" height="60" as="geometry" />
        </mxCell>
        <mxCell id="0IOq34aNbkgQqZw7lwuk-16" style="edgeStyle=orthogonalEdgeStyle;rounded=0;orthogonalLoop=1;jettySize=auto;html=1;" edge="1" parent="1" source="0IOq34aNbkgQqZw7lwuk-2" target="0IOq34aNbkgQqZw7lwuk-5">
          <mxGeometry relative="1" as="geometry" />
        </mxCell>
        <mxCell id="0IOq34aNbkgQqZw7lwuk-17" style="edgeStyle=orthogonalEdgeStyle;rounded=0;orthogonalLoop=1;jettySize=auto;html=1;" edge="1" parent="1" source="0IOq34aNbkgQqZw7lwuk-2" target="0IOq34aNbkgQqZw7lwuk-6">
          <mxGeometry relative="1" as="geometry" />
        </mxCell>
        <mxCell id="0IOq34aNbkgQqZw7lwuk-22" style="edgeStyle=orthogonalEdgeStyle;rounded=0;orthogonalLoop=1;jettySize=auto;html=1;" edge="1" parent="1" source="0IOq34aNbkgQqZw7lwuk-2" target="0IOq34aNbkgQqZw7lwuk-4">
          <mxGeometry relative="1" as="geometry">
            <Array as="points">
              <mxPoint x="294" y="260" />
              <mxPoint x="70" y="260" />
            </Array>
          </mxGeometry>
        </mxCell>
        <mxCell id="0IOq34aNbkgQqZw7lwuk-2" value="Pets" style="rounded=0;whiteSpace=wrap;html=1;" vertex="1" parent="1">
          <mxGeometry x="234" y="180" width="120" height="60" as="geometry" />
        </mxCell>
        <mxCell id="0IOq34aNbkgQqZw7lwuk-19" style="edgeStyle=orthogonalEdgeStyle;rounded=0;orthogonalLoop=1;jettySize=auto;html=1;" edge="1" parent="1" source="0IOq34aNbkgQqZw7lwuk-3" target="0IOq34aNbkgQqZw7lwuk-8">
          <mxGeometry relative="1" as="geometry" />
        </mxCell>
        <mxCell id="0IOq34aNbkgQqZw7lwuk-20" style="edgeStyle=orthogonalEdgeStyle;rounded=0;orthogonalLoop=1;jettySize=auto;html=1;" edge="1" parent="1" source="0IOq34aNbkgQqZw7lwuk-3" target="0IOq34aNbkgQqZw7lwuk-7">
          <mxGeometry relative="1" as="geometry" />
        </mxCell>
        <mxCell id="0IOq34aNbkgQqZw7lwuk-21" style="edgeStyle=orthogonalEdgeStyle;rounded=0;orthogonalLoop=1;jettySize=auto;html=1;" edge="1" parent="1" source="0IOq34aNbkgQqZw7lwuk-3" target="0IOq34aNbkgQqZw7lwuk-9">
          <mxGeometry relative="1" as="geometry">
            <Array as="points">
              <mxPoint x="520" y="260" />
              <mxPoint x="740" y="260" />
            </Array>
          </mxGeometry>
        </mxCell>
        <mxCell id="0IOq34aNbkgQqZw7lwuk-3" value="PackAnimals" style="rounded=0;whiteSpace=wrap;html=1;" vertex="1" parent="1">
          <mxGeometry x="460" y="180" width="120" height="60" as="geometry" />
        </mxCell>
        <mxCell id="0IOq34aNbkgQqZw7lwuk-4" value="Dogs" style="rounded=0;whiteSpace=wrap;html=1;" vertex="1" parent="1">
          <mxGeometry x="10" y="280" width="120" height="60" as="geometry" />
        </mxCell>
        <mxCell id="0IOq34aNbkgQqZw7lwuk-5" value="Cats" style="rounded=0;whiteSpace=wrap;html=1;" vertex="1" parent="1">
          <mxGeometry x="140" y="280" width="120" height="60" as="geometry" />
        </mxCell>
        <mxCell id="0IOq34aNbkgQqZw7lwuk-6" value="Hamsters" style="rounded=0;whiteSpace=wrap;html=1;" vertex="1" parent="1">
          <mxGeometry x="270" y="280" width="120" height="60" as="geometry" />
        </mxCell>
        <mxCell id="0IOq34aNbkgQqZw7lwuk-7" value="Horses" style="rounded=0;whiteSpace=wrap;html=1;" vertex="1" parent="1">
          <mxGeometry x="420" y="280" width="120" height="60" as="geometry" />
        </mxCell>
        <mxCell id="0IOq34aNbkgQqZw7lwuk-8" value="Camels" style="rounded=0;whiteSpace=wrap;html=1;" vertex="1" parent="1">
          <mxGeometry x="550" y="280" width="120" height="60" as="geometry" />
        </mxCell>
        <mxCell id="0IOq34aNbkgQqZw7lwuk-9" value="Donkeys" style="rounded=0;whiteSpace=wrap;html=1;" vertex="1" parent="1">
          <mxGeometry x="680" y="280" width="120" height="60" as="geometry" />
        </mxCell>
      </root>
    </mxGraphModel>
  </diagram>
</mxfile>
